<svg id="nanomiljard-logo" viewBox="-140 -140 280 280" xmlns="http://www.w3.org/2000/svg" xmlns:xlink="http://www.w3.org/1999/xlink">
  <circle id="R1" cx="0" cy="100" r="20" />
  <use xlink:href="#R1" transform="rotate(35 0 0)" />
  <use xlink:href="#R1" transform="rotate(70 0 0)" />
  <use xlink:href="#R1" transform="rotate(105 0 0)" />
  <use xlink:href="#R1" transform="rotate(140 0 0)" />
  <use xlink:href="#R1" transform="rotate(-35 0 0)" />
  <use xlink:href="#R1" transform="rotate(-70 0 0)" />
  <use xlink:href="#R1" transform="rotate(-105 0 0)" />
  <use xlink:href="#R1" transform="rotate(-140 0 0)" />
  <rect x="-20" y="-120" rx="20" ry="20" width="40" height="120" />
  Sorry, your browser does not support inline SVG.
  <text x="0" y="180" text-anchor="middle" style="font-family:Verdana;font-size:56;font-weight:bold">Nanomiljard</text>
</svg>
<svg id="nanomiljard-big" viewBox="-200 -140 400 340" xmlns="http://www.w3.org/2000/svg" xmlns:xlink="http://www.w3.org/1999/xlink">
  <circle id="R1" cx="0" cy="100" r="20" />
  <use xlink:href="#R1" transform="rotate(35 0 0)" />
  <use xlink:href="#R1" transform="rotate(70 0 0)" />
  <use xlink:href="#R1" transform="rotate(105 0 0)" />
  <use xlink:href="#R1" transform="rotate(140 0 0)" />
  <use xlink:href="#R1" transform="rotate(-35 0 0)" />
  <use xlink:href="#R1" transform="rotate(-70 0 0)" />
  <use xlink:href="#R1" transform="rotate(-105 0 0)" />
  <use xlink:href="#R1" transform="rotate(-140 0 0)" />
  <rect x="-20" y="-120" rx="20" ry="20" width="40" height="120" />
  Sorry, your browser does not support inline SVG.
  <text x="0" y="180" text-anchor="middle" style="font-family:Verdana;font-size:56;font-weight:bold">Nanomiljard</text>
</svg>

